<svg width="26" height="19" fill="none" xmlns="http://www.w3.org/2000/svg"><path d="M.585.904c-.223.102-.48.387-.539.599a.984.984 0 0 0 .281 1.025c.321.312-.722.289 12.673.289s12.352.023 12.673-.289a.984.984 0 0 0 .281-1.025c-.059-.212-.316-.497-.539-.599C25.249.828 24.75.825 13 .825S.751.828.585.904m.097 7.954a1.008 1.008 0 0 0-.578.519c-.188.404-.117.796.203 1.117a1 1 0 0 0 .37.249c.237.066 24.409.066 24.646 0 .224-.062.555-.396.624-.63a1.002 1.002 0 0 0-.629-1.255c-.242-.086-24.394-.086-24.636 0m-.119 8.04c-.374.198-.539.47-.539.89 0 .427.187.725.578.919.149.075.706.078 12.398.078 11.812 0 12.247-.003 12.402-.08.232-.115.497-.421.557-.642a.996.996 0 0 0-.531-1.167c-.157-.081-.461-.083-12.437-.081-11.885.002-12.281.005-12.428.083" fill-rule="evenodd" fill="#000"/></svg>