<svg width="338" height="71" fill="none" xmlns="http://www.w3.org/2000/svg"><path d="M138.396.604C93.951 2.222 53.207 7.966 26.758 16.342c-7.566 2.396-18.524 7.763-21.852 10.704-16.199 14.31 9.09 28.573 66.356 37.428 56.25 8.697 139.226 8.697 195.476 0 40.238-6.222 64.999-15.098 70.185-25.159 3.22-6.248-.97-11.892-13.288-17.895C292.485 6.239 216.907-2.254 138.396.604m62.714 1.084c55.985 2.247 102.648 10.336 123.933 21.483 7.98 4.179 11.83 8.177 11.83 12.285 0 14.283-46.241 27.701-112.666 32.693-30.605 2.3-79.809 2.3-110.414 0C62.576 64.3 21.395 55.128 7.099 44.387c-7.36-5.53-7.79-10.858-1.354-16.764 2.683-2.461 14.361-8.085 21.577-10.39C52.496 9.192 92.389 3.444 134.918 1.73c16.048-.647 50.582-.668 66.192-.042" fill-rule="evenodd" fill="#000"/></svg>