<svg width="500" height="294" viewBox="0 0 500 294" fill="none" xmlns="http://www.w3.org/2000/svg">
<path d="M497.658 283.681C495.759 287.125 492.22 289.616 487.125 291.161C482.027 292.707 475.415 293.291 467.454 292.948C451.533 292.261 430.332 287.872 405.317 280.216C355.297 264.906 290.135 236.564 221.696 198.813C153.256 161.063 94.5231 121.066 54.8905 86.9234C35.071 69.8496 20.0489 54.2575 10.9753 41.1578C6.43791 34.607 3.40454 28.7029 1.9927 23.5664C0.581524 18.4323 0.801177 14.1106 2.70076 10.6668C4.60035 7.22297 8.13864 4.73178 13.234 3.18667C18.3318 1.64083 24.9438 1.05701 32.9051 1.40045C48.8256 2.08724 70.0273 6.47599 95.0416 14.1321C145.062 29.4418 210.224 57.7841 278.663 95.5347C347.103 133.285 405.836 173.283 445.469 207.425C465.288 224.499 480.31 240.091 489.384 253.19C493.921 259.741 496.955 265.645 498.366 270.782C499.778 275.916 499.558 280.237 497.658 283.681Z" stroke="black"/>
</svg>
