<svg width="199" height="209" fill="none" xmlns="http://www.w3.org/2000/svg"><path d="M93.246 33.747c-3.156 17.102-5.844 31.446-5.974 31.877-.213.714-2.339-1.213-23.681-21.467C48.343 29.686 39.978 21.97 39.669 22.089c-.56.214-1.824-2.542 15.025 32.762 6.78 14.206 12.26 25.897 12.178 25.979-.082.082-14.503-1.74-32.047-4.049-17.544-2.309-31.978-4.119-32.076-4.021-.098.098-.097.371.001.607s12.873 7.294 28.388 15.685c15.515 8.392 28.212 15.332 28.215 15.423.003.091-12.753 7.086-28.347 15.544-16.52 8.96-28.353 15.569-28.353 15.837 0 .252.229.459.508.459.28 0 14.704-1.869 32.054-4.153 17.35-2.285 31.604-4.095 31.676-4.023.072.071-5.417 11.754-12.198 25.96-16.817 35.236-15.585 32.548-15.024 32.762.309.119 8.674-7.597 23.922-22.068 21.342-20.254 23.468-22.181 23.681-21.467.13.431 2.818 14.775 5.974 31.877 4.679 25.349 5.834 31.094 6.252 31.094.418 0 1.574-5.746 6.254-31.094 3.157-17.102 5.846-31.445 5.974-31.874.212-.708 2.388 1.265 23.682 21.468 15.239 14.458 23.614 22.183 23.924 22.064.559-.214 1.822 2.54-15.026-32.762-6.78-14.206-12.269-25.888-12.197-25.96.072-.072 14.326 1.738 31.676 4.023 17.35 2.284 31.774 4.153 32.054 4.153.279 0 .508-.207.508-.459 0-.268-11.833-6.877-28.353-15.837-15.594-8.458-28.35-15.453-28.347-15.544.003-.091 12.7-7.031 28.215-15.423 15.515-8.391 28.29-15.449 28.388-15.685.098-.236.099-.509.001-.607-.098-.098-14.532 1.712-32.076 4.021s-31.965 4.131-32.047 4.049c-.082-.082 5.324-11.623 12.014-25.648 16.999-35.634 15.737-32.883 15.187-33.095-.306-.117-8.771 7.693-23.92 22.07-21.342 20.254-23.468 22.181-23.681 21.467-.13-.431-2.819-14.775-5.976-31.877-4.68-25.348-5.836-31.094-6.254-31.094-.418 0-1.573 5.745-6.252 31.094m12.011 2.985c3.057 16.554 5.668 30.456 5.803 30.892.26.841 1.048.115 37.112-34.214 5.153-4.906 9.369-8.87 9.368-8.81-.001.06-6.172 13.019-13.712 28.798-7.541 15.779-13.682 28.729-13.647 28.777.035.048 14.218-1.777 31.518-4.056s31.486-4.109 31.524-4.068c.038.042-12.452 6.867-27.755 15.167-15.303 8.3-27.824 15.172-27.825 15.272-.001.099 12.466 6.947 27.704 15.218 15.238 8.27 27.652 15.09 27.588 15.154-.064.064-14.207-1.738-31.429-4.004-17.222-2.266-31.329-4.093-31.349-4.058-.021.034 6.132 12.973 13.672 28.752 7.54 15.779 13.71 28.738 13.711 28.798.001.06-4.215-3.904-9.368-8.81-36.064-34.329-36.852-35.055-37.112-34.214-.135.436-2.746 14.338-5.803 30.892-3.057 16.554-5.648 30.099-5.758 30.099-.11 0-2.701-13.545-5.758-30.099-3.057-16.554-5.668-30.456-5.803-30.892-.258-.841-1.056-.106-37.11 34.214-5.153 4.906-9.369 8.87-9.368 8.81.001-.06 6.171-13.019 13.711-28.798 7.54-15.779 13.693-28.718 13.672-28.752-.02-.035-14.127 1.792-31.349 4.058s-31.365 4.068-31.429 4.004c-.064-.064 12.35-6.884 27.588-15.154 15.238-8.271 27.705-15.119 27.704-15.218-.001-.1-12.522-6.972-27.825-15.272-15.303-8.3-27.793-15.125-27.755-15.167.038-.041 14.224 1.789 31.524 4.068s31.483 4.104 31.517 4.056c.035-.048-6.107-12.998-13.647-28.777C47.631 37.619 41.461 24.66 41.46 24.6c-.001-.06 4.215 3.904 9.368 8.81C86.896 67.743 87.68 68.465 87.94 67.624c.135-.436 2.746-14.338 5.801-30.892 3.055-16.554 5.645-30.099 5.756-30.099.111 0 2.703 13.545 5.76 30.099" fill-rule="evenodd" fill="#000"/></svg>