<svg aria-hidden="true" style="position: absolute; width: 0; height: 0; overflow: hidden;" version="1.1" xmlns="http://www.w3.org/2000/svg" xmlns:xlink="http://www.w3.org/1999/xlink">
<defs>
<symbol id="icon-arrow" viewBox="0 0 34 32">
<path d="M2 21.922c-1.148 0.663-1.541 2.131-0.878 3.278s2.131 1.541 3.278 0.878l-2.4-4.157zM33.231 8.621c0.343-1.28-0.417-2.596-1.697-2.939l-20.864-5.59c-1.28-0.343-2.596 0.417-2.939 1.697s0.417 2.596 1.697 2.939l18.546 4.969-4.969 18.546c-0.343 1.28 0.417 2.596 1.697 2.939s2.596-0.417 2.939-1.697l5.591-20.864zM4.4 26.078l27.713-16-2.4-4.157-27.713 16 2.4 4.157z"></path>
</symbol>
<symbol id="icon-Bubble" viewBox="0 0 73 32">
<path fill="#191a23" style="fill: var(--color1, #191a23)" d="M5.414 0c-2.99 0-5.414 2.424-5.414 5.414v17.799c0 2.99 2.426 5.414 5.416 5.414h1.364l3.205 3.374 3.205-3.374h54.297c2.99 0 5.416-2.424 5.416-5.414v-17.799c0-2.99-2.424-5.414-5.414-5.414h-62.075z"></path>
<path fill="#b9ff66" style="fill: var(--color2, #b9ff66)" d="M6.78 28.626l0.087-0.083-0.036-0.038h-0.052v0.12zM9.985 32l-0.087 0.083 0.087 0.092 0.087-0.092-0.087-0.083zM13.19 28.626v-0.12h-0.052l-0.036 0.038 0.087 0.083zM0.12 5.414c0-2.923 2.37-5.293 5.293-5.293v-0.241c-3.056 0-5.534 2.478-5.534 5.534h0.241zM0.12 23.212v-17.799h-0.241v17.799h0.241zM5.416 28.506c-2.923 0-5.296-2.37-5.296-5.293h-0.241c0 3.056 2.48 5.534 5.536 5.534v-0.241zM6.78 28.506h-1.364v0.241h1.364v-0.241zM10.072 31.917l-3.205-3.374-0.174 0.166 3.205 3.374 0.174-0.166zM13.102 28.543l-3.205 3.374 0.174 0.166 3.205-3.374-0.174-0.166zM67.486 28.506h-54.297v0.241h54.297v-0.241zM72.782 23.212c0 2.923-2.372 5.293-5.296 5.293v0.241c3.056 0 5.536-2.477 5.536-5.534h-0.241zM72.782 5.414v17.799h0.241v-17.799h-0.241zM67.489 0.12c2.923 0 5.293 2.37 5.293 5.293h0.241c0-3.056-2.478-5.534-5.534-5.534v0.241zM5.414 0.12h62.075v-0.241h-62.075v0.241z"></path>
</symbol>
<symbol id="icon-cta" viewBox="0 0 29 32">
<path fill="#d9d9d9" style="fill: var(--color3, #d9d9d9)" d="M22.441 14.339l1.441 3.65 3.753-1.149-1.955 3.403 3.238 2.217-3.88 0.593 0.285 3.914-2.882-2.664-2.882 2.664 0.285-3.914-3.88-0.593 3.238-2.217-1.955-3.403 3.753 1.149 1.441-3.65z"></path>
<path fill="#b9ff66" style="fill: var(--color2, #b9ff66)" d="M9.089 24.798l1.858-3.411 1.873 3.411 3.403 1.866-3.403 1.866-1.873 3.411-1.858-3.411-3.418-1.866 3.418-1.866z"></path>
<path fill="#000" style="fill: var(--color4, #000)" d="M17.377 15.109c0 2.774-2.249 5.023-5.023 5.023s-5.023-2.249-5.023-5.023c0-2.774 2.249-5.023 5.023-5.023s5.023 2.249 5.023 5.023z"></path>
<path fill="#fff" style="fill: var(--color5, #fff)" d="M11.504 14.015c0 0.895-0.363 1.62-0.81 1.62s-0.81-0.725-0.81-1.62c0-0.895 0.363-1.62 0.81-1.62s0.81 0.725 0.81 1.62z"></path>
<path fill="#fff" style="fill: var(--color5, #fff)" d="M14.825 14.015c0 0.895-0.363 1.62-0.81 1.62s-0.81-0.725-0.81-1.62c0-0.895 0.363-1.62 0.81-1.62s0.81 0.725 0.81 1.62z"></path>
</symbol>
<symbol id="icon-facebook" viewBox="0 0 32 32">
<path fill="#fff" style="fill: var(--color5, #fff)" d="M32 16.097c0-8.893-7.161-16.097-16-16.097s-16 7.205-16 16.097c0 8.049 5.806 14.734 13.484 15.903v-11.229h-4.065v-4.673h4.064v-3.505c0-4.024 2.387-6.296 6-6.296 1.806 0 3.613 0.325 3.613 0.325v3.959h-2c-2 0-2.645 1.233-2.645 2.531v2.986h4.452l-0.71 4.673h-3.742v11.229c7.677-1.168 13.548-7.854 13.548-15.903z"></path>
</symbol>
<symbol id="icon-Heart" viewBox="0 0 32 32">
<path fill="#000" style="fill: var(--color4, #000)" d="M21.567 26.375c5.786-3.040 8.024-10.176 4.998-15.939s-10.168-7.972-15.954-4.932c-5.786 3.040-8.024 10.176-4.998 15.939s10.168 7.972 15.954 4.932z"></path>
<path fill="#fff" style="fill: var(--color5, #fff)" d="M10.7 13.329c0.557-0.76 1.38-1.228 2.316-1.329 0.709-0.076 1.367 0.076 1.987 0.456 0.316 0.19 0.595 0.43 0.861 0.722 0.19-0.342 0.418-0.646 0.683-0.899 0.519-0.506 1.139-0.798 1.835-0.874 0.937-0.101 1.848 0.177 2.557 0.798 0.696 0.608 1.139 1.494 1.253 2.494 0.114 1.026-0.165 2.013-0.873 3.102-0.633 0.975-1.595 1.988-2.708 3.178-0.38 0.405-0.81 0.861-1.253 1.342-0.114 0.127-0.278 0.215-0.456 0.228-0.177 0.025-0.342-0.025-0.494-0.127-0.544-0.38-1.063-0.734-1.519-1.038-1.342-0.912-2.506-1.697-3.341-2.507-0.937-0.899-1.418-1.811-1.531-2.836-0.101-1 0.139-1.963 0.683-2.71z"></path>
</symbol>
<symbol id="icon-linkedin" viewBox="0 0 32 32">
<path fill="#b9ff66" style="fill: var(--color2, #b9ff66)" d="M0.598 32h6.579v-21.3h-6.579v21.3z"></path>
<path fill="#b9ff66" style="fill: var(--color2, #b9ff66)" d="M0 3.9c0 2.1 1.695 3.8 3.888 3.8 2.093 0 3.788-1.7 3.788-3.8s-1.695-3.9-3.788-3.9c-2.193 0-3.888 1.8-3.888 3.9z"></path>
<path fill="#b9ff66" style="fill: var(--color2, #b9ff66)" d="M25.321 32h6.679v-11.7c0-5.7-1.296-10.2-7.975-10.2-3.19 0-5.383 1.8-6.28 3.5h-0.1v-2.9h-6.28v21.3h6.579v-10.5c0-2.8 0.498-5.5 3.988-5.5 3.389 0 3.389 3.2 3.389 5.6v10.4z"></path>
</symbol>
<symbol id="icon-Location" viewBox="0 0 32 32">
<path fill="#b9ff66" style="fill: var(--color2, #b9ff66)" d="M21.293 26.588c5.896-2.871 8.362-9.951 5.51-15.812s-9.944-8.286-15.84-5.415c-5.896 2.871-8.362 9.951-5.51 15.812s9.944 8.286 15.84 5.415z"></path>
<path fill="#000" style="fill: var(--color4, #000)" d="M16.068 28.069c-1.265 0-2.555-0.195-3.808-0.621-3.066-1.022-5.547-3.164-6.983-6.061-1.435-2.884-1.654-6.158-0.62-9.225 2.141-6.316 9.026-9.76 15.364-7.655 3.066 1.022 5.547 3.164 6.983 6.060 1.435 2.884 1.654 6.158 0.62 9.225-1.727 5.063-6.484 8.275-11.556 8.275zM16.189 4.436c-4.854 0-9.403 3.067-11.046 7.91-0.985 2.933-0.779 6.060 0.596 8.811 1.375 2.762 3.747 4.819 6.678 5.793 6.058 2.008 12.639-1.278 14.683-7.314 0.985-2.933 0.779-6.060-0.596-8.811-1.375-2.762-3.747-4.819-6.678-5.793-1.204-0.414-2.433-0.596-3.637-0.596z"></path>
<path fill="#000" style="fill: var(--color4, #000)" d="M22.175 14.062c-0.122 2.957-5.121 9.87-6.314 11.488-0.122 0.17-0.377 0.158-0.487-0.024-0.754-1.217-3.248-5.306-4.55-8.616-0.523-1.314-0.851-2.507-0.815-3.347 0.134-3.359 2.968-5.975 6.326-5.841 3.357 0.158 5.973 2.982 5.839 6.34z"></path>
<path fill="#b9ff66" style="fill: var(--color2, #b9ff66)" d="M18.060 15.791c1.088-1.088 1.088-2.853 0-3.941s-2.852-1.088-3.94 0c-1.088 1.088-1.088 2.853 0 3.941s2.852 1.088 3.94 0z"></path>
</symbol>
<symbol id="icon-Logo" viewBox="0 0 196 32">
<path d="M15.999 4.92l15.645-4.609-4.565 15.69 4.565 15.645-15.645-4.565-15.69 4.565 4.609-15.645-4.609-15.69 15.69 4.609z"></path>
<path d="M43.484 27.556v-24.889h9.884c1.517 0 2.868 0.308 4.053 0.924 1.209 0.593 2.145 1.446 2.809 2.56 0.687 1.090 1.031 2.406 1.031 3.947v0.462c0 1.541-0.356 2.868-1.067 3.982-0.687 1.114-1.624 1.967-2.809 2.56s-2.524 0.889-4.018 0.889h-6.044v9.564h-3.84zM47.324 14.507h5.653c1.351 0 2.43-0.356 3.236-1.067s1.209-1.683 1.209-2.916v-0.356c0-1.256-0.403-2.24-1.209-2.951s-1.884-1.067-3.236-1.067h-5.653v8.356z"></path>
<path d="M72.742 28.053c-1.754 0-3.319-0.356-4.693-1.067-1.351-0.735-2.418-1.778-3.2-3.129s-1.173-2.951-1.173-4.8v-0.533c0-1.849 0.391-3.437 1.173-4.764 0.782-1.351 1.849-2.394 3.2-3.129 1.375-0.735 2.939-1.102 4.693-1.102s3.319 0.367 4.693 1.102c1.375 0.735 2.453 1.778 3.236 3.129 0.782 1.327 1.173 2.916 1.173 4.764v0.533c0 1.849-0.391 3.449-1.173 4.8s-1.861 2.394-3.236 3.129c-1.375 0.711-2.939 1.067-4.693 1.067zM72.742 24.782c1.612 0 2.916-0.51 3.911-1.529 1.019-1.043 1.529-2.477 1.529-4.302v-0.32c0-1.825-0.498-3.247-1.493-4.267-0.996-1.043-2.311-1.564-3.947-1.564-1.588 0-2.892 0.521-3.911 1.564-0.996 1.019-1.493 2.442-1.493 4.267v0.32c0 1.825 0.498 3.259 1.493 4.302 1.019 1.019 2.323 1.529 3.911 1.529z"></path>
<path d="M93.586 28.053c-2.228 0-4.077-0.498-5.547-1.493s-2.37-2.501-2.702-4.516l3.413-0.818c0.189 0.972 0.509 1.742 0.96 2.311s1.007 0.972 1.671 1.209c0.687 0.237 1.422 0.356 2.204 0.356 1.162 0 2.051-0.225 2.667-0.676 0.64-0.45 0.96-1.031 0.96-1.742s-0.296-1.233-0.889-1.564c-0.593-0.332-1.469-0.604-2.631-0.818l-1.209-0.213c-1.185-0.213-2.264-0.521-3.236-0.924s-1.742-0.96-2.311-1.671-0.853-1.624-0.853-2.738c0-1.659 0.616-2.939 1.849-3.84 1.233-0.924 2.868-1.387 4.907-1.387 1.967 0 3.58 0.45 4.836 1.351 1.28 0.877 2.109 2.074 2.489 3.591l-3.413 0.96c-0.213-1.067-0.664-1.813-1.351-2.24-0.687-0.45-1.54-0.676-2.56-0.676-0.996 0-1.778 0.19-2.347 0.569-0.569 0.356-0.853 0.865-0.853 1.529 0 0.711 0.273 1.233 0.818 1.564 0.569 0.332 1.327 0.581 2.276 0.747l1.244 0.213c1.256 0.213 2.406 0.51 3.449 0.889s1.86 0.924 2.453 1.636c0.616 0.711 0.924 1.659 0.924 2.844 0 1.754-0.652 3.117-1.956 4.089s-3.058 1.458-5.262 1.458z"></path>
<path d="M105.084 27.556v-17.529h3.662v17.529h-3.662zM106.933 7.644c-0.711 0-1.316-0.225-1.813-0.676-0.475-0.474-0.711-1.079-0.711-1.813s0.236-1.327 0.711-1.778c0.498-0.474 1.102-0.711 1.813-0.711 0.734 0 1.339 0.237 1.813 0.711 0.474 0.45 0.711 1.043 0.711 1.778s-0.237 1.339-0.711 1.813c-0.475 0.45-1.079 0.676-1.813 0.676z"></path>
<path d="M120.759 27.556c-1.067 0-1.92-0.32-2.56-0.96-0.616-0.64-0.924-1.493-0.924-2.56v-10.916h-4.836v-3.093h4.836v-5.796h3.662v5.796h5.227v3.093h-5.227v10.276c0 0.711 0.332 1.067 0.996 1.067h3.662v3.093h-4.836z"></path>
<path d="M130.466 27.556v-17.529h3.662v17.529h-3.662zM132.315 7.644c-0.711 0-1.316-0.225-1.813-0.676-0.474-0.474-0.711-1.079-0.711-1.813s0.237-1.327 0.711-1.778c0.498-0.474 1.102-0.711 1.813-0.711 0.735 0 1.34 0.237 1.813 0.711 0.475 0.45 0.711 1.043 0.711 1.778s-0.236 1.339-0.711 1.813c-0.474 0.45-1.078 0.676-1.813 0.676z"></path>
<path d="M143.617 27.556l-5.902-17.529h3.876l4.658 14.827h0.569l4.658-14.827h3.876l-5.902 17.529h-5.831z"></path>
<path d="M165.623 27.876c-1.327 0-2.512-0.296-3.556-0.889s-1.86-1.434-2.453-2.524c-0.592-1.090-0.889-2.394-0.889-3.911v-10.524h3.662v10.276c0 1.517 0.38 2.643 1.138 3.378 0.759 0.711 1.813 1.067 3.164 1.067 1.493 0 2.691-0.498 3.591-1.493 0.924-1.019 1.387-2.477 1.387-4.373v-8.853h3.662v17.529h-3.591v-2.631h-0.569c-0.332 0.711-0.924 1.387-1.778 2.027-0.853 0.616-2.109 0.924-3.769 0.924z"></path>
<path d="M187.926 28.053c-2.228 0-4.077-0.498-5.547-1.493s-2.371-2.501-2.702-4.516l3.413-0.818c0.189 0.972 0.509 1.742 0.96 2.311s1.007 0.972 1.671 1.209c0.687 0.237 1.422 0.356 2.204 0.356 1.161 0 2.050-0.225 2.667-0.676 0.64-0.45 0.96-1.031 0.96-1.742s-0.297-1.233-0.889-1.564c-0.593-0.332-1.47-0.604-2.631-0.818l-1.209-0.213c-1.186-0.213-2.264-0.521-3.236-0.924s-1.742-0.96-2.311-1.671-0.853-1.624-0.853-2.738c0-1.659 0.616-2.939 1.849-3.84 1.232-0.924 2.868-1.387 4.907-1.387 1.967 0 3.579 0.45 4.836 1.351 1.28 0.877 2.109 2.074 2.489 3.591l-3.413 0.96c-0.213-1.067-0.664-1.813-1.351-2.24-0.688-0.45-1.541-0.676-2.56-0.676-0.996 0-1.778 0.19-2.347 0.569-0.569 0.356-0.853 0.865-0.853 1.529 0 0.711 0.272 1.233 0.818 1.564 0.569 0.332 1.327 0.581 2.276 0.747l1.244 0.213c1.256 0.213 2.405 0.51 3.449 0.889s1.86 0.924 2.453 1.636c0.616 0.711 0.924 1.659 0.924 2.844 0 1.754-0.652 3.117-1.956 4.089s-3.058 1.458-5.262 1.458z"></path>
</symbol>
<symbol id="icon-Loudspeaker" viewBox="0 0 30 32">
<path fill="#000" style="fill: var(--color4, #000)" d="M13.262 31.877c-0.548 0.187-1.175-0.184-1.393-0.828l-3.391-9.936 1.982-0.678 3.395 9.949c0.218 0.637-0.048 1.305-0.592 1.492z"></path>
<path fill="#000" style="fill: var(--color4, #000)" d="M12.965 32c-0.16 0-0.323-0.037-0.48-0.116-0.317-0.157-0.569-0.45-0.691-0.811l-3.391-9.936c-0.014-0.037 0.007-0.082 0.048-0.095l1.982-0.678c0.020-0.007 0.041-0.007 0.058 0.003s0.031 0.024 0.037 0.044l3.395 9.949c0.228 0.674-0.058 1.386-0.64 1.587-0.099 0.034-0.208 0.051-0.317 0.051zM8.573 21.162l3.367 9.864c0.109 0.324 0.334 0.589 0.613 0.725 0.225 0.109 0.467 0.129 0.684 0.055 0.504-0.174 0.749-0.8 0.545-1.397l-3.371-9.878-1.839 0.63z"></path>
<path fill="#b9ff66" style="fill: var(--color2, #b9ff66)" d="M10.109 11.859l-6.411 4.574-2.496 2.592-0.981 1.734-0.003 0.014c-0.194 0.3-0.082 0.991 0.283 1.696 0.357 0.695 0.861 1.179 1.216 1.206l-0.010 0.007 1.883 0.204 3.524-0.562 7.48-2.677 9.363 1.597c-2.336-0.436-5.489-3.559-7.78-7.977-2.288-4.414-3.017-8.778-2.012-10.93h-0.003l-4.052 8.522z"></path>
<path fill="#fff" style="fill: var(--color5, #fff)" d="M25.501 22.052c2.298-1.194 1.854-6.606-0.993-12.089s-7.016-8.96-9.314-7.766c-2.298 1.194-1.854 6.606 0.993 12.089s7.016 8.96 9.314 7.766z"></path>
<path fill="#000" style="fill: var(--color4, #000)" d="M24.491 22.364c-1.001 0-2.206-0.559-3.504-1.645-1.767-1.478-3.5-3.757-4.879-6.421-2.087-4.033-2.949-8.168-2.193-10.535 0.252-0.79 0.674-1.342 1.25-1.638 1.144-0.586 2.754-0.089 4.539 1.403 1.767 1.478 3.5 3.757 4.879 6.421 2.091 4.033 2.952 8.168 2.193 10.535-0.252 0.79-0.674 1.342-1.25 1.638-0.31 0.163-0.657 0.242-1.035 0.242zM16.207 2.036c-0.351 0-0.678 0.072-0.97 0.225-0.541 0.276-0.936 0.8-1.175 1.553-0.746 2.333 0.112 6.424 2.182 10.423 2.819 5.44 6.953 8.921 9.217 7.759 0.541-0.276 0.936-0.8 1.175-1.553 0.746-2.333-0.112-6.424-2.183-10.423-2.455-4.735-5.901-7.984-8.246-7.984z"></path>
<path fill="#000" style="fill: var(--color4, #000)" d="M24.491 22.364c-1.001 0-2.206-0.559-3.504-1.645-1.767-1.478-3.5-3.757-4.879-6.421-2.087-4.033-2.949-8.168-2.193-10.535 0.252-0.79 0.674-1.342 1.25-1.638 0.766-0.395 1.767-0.296 2.894 0.283 1.079 0.555 2.247 1.54 3.384 2.844 0.027 0.031 0.024 0.078-0.007 0.106s-0.078 0.024-0.106-0.007c-2.308-2.65-4.644-3.835-6.095-3.089-0.541 0.276-0.936 0.8-1.175 1.553-0.746 2.333 0.112 6.424 2.182 10.423 2.451 4.731 5.901 7.984 8.243 7.984 0.351 0 0.678-0.072 0.97-0.225 0.541-0.276 0.936-0.8 1.175-1.553 0.746-2.333-0.112-6.424-2.183-10.423-0.616-1.192-1.311-2.313-2.057-3.331-0.024-0.034-0.017-0.082 0.017-0.106s0.082-0.017 0.106 0.017c0.752 1.025 1.447 2.153 2.070 3.352 2.087 4.029 2.949 8.165 2.189 10.532-0.252 0.79-0.674 1.342-1.25 1.638-0.31 0.163-0.657 0.242-1.035 0.242z"></path>
<path fill="#b9ff66" style="fill: var(--color2, #b9ff66)" d="M20.287 15.073c0.532-0.277 0.43-1.529-0.229-2.798s-1.624-2.073-2.157-1.797c-0.532 0.277-0.43 1.529 0.229 2.798s1.624 2.073 2.157 1.797z"></path>
<path fill="#b9ff66" style="fill: var(--color2, #b9ff66)" d="M20.054 15.204c-0.586 0-1.403-0.756-1.992-1.897-0.49-0.947-0.691-1.921-0.511-2.483 0.065-0.198 0.17-0.337 0.317-0.412 0.579-0.296 1.57 0.511 2.257 1.836 0.49 0.947 0.691 1.921 0.511 2.483-0.065 0.198-0.17 0.337-0.317 0.412-0.082 0.041-0.17 0.061-0.266 0.061zM18.134 10.497c-0.071 0-0.14 0.014-0.197 0.044-0.112 0.058-0.194 0.167-0.245 0.327-0.167 0.525 0.027 1.458 0.501 2.371 0.627 1.209 1.57 2.023 2.057 1.771 0.112-0.058 0.194-0.167 0.245-0.327 0.167-0.528-0.031-1.458-0.501-2.371-0.552-1.059-1.341-1.815-1.859-1.815z"></path>
<path fill="#000" style="fill: var(--color4, #000)" d="M23.973 21.093c-0.878 0-1.934-0.49-3.071-1.441-1.546-1.294-3.064-3.29-4.27-5.62-1.828-3.529-2.581-7.15-1.92-9.224 0.221-0.695 0.592-1.179 1.1-1.441 1.164-0.596 2.877 0.092 4.702 1.887 0.031 0.031 0.031 0.075 0 0.106s-0.075 0.031-0.106 0c-1.777-1.747-3.429-2.429-4.528-1.86-0.47 0.242-0.814 0.695-1.025 1.352-0.65 2.037 0.099 5.613 1.91 9.111 2.142 4.139 5.155 6.979 7.205 6.979 0.306 0 0.589-0.065 0.848-0.194 0.47-0.242 0.814-0.695 1.025-1.352 0.65-2.037-0.099-5.613-1.91-9.111-0.548-1.056-1.161-2.047-1.822-2.943-0.024-0.034-0.017-0.082 0.017-0.106s0.082-0.017 0.105 0.017c0.667 0.906 1.284 1.901 1.835 2.963 1.828 3.529 2.581 7.15 1.92 9.224-0.221 0.695-0.592 1.179-1.1 1.441-0.279 0.14-0.586 0.211-0.916 0.211z"></path>
<path fill="#000" style="fill: var(--color4, #000)" d="M3.592 23.958c-0.003 0-0.007 0-0.007 0l-1.883-0.204c-0.010 0-0.020-0.003-0.031-0.010-0.388-0.061-0.878-0.552-1.236-1.24-0.381-0.725-0.494-1.434-0.286-1.768l0.003-0.010 0.981-1.737c0.003-0.007 0.007-0.010 0.010-0.014l2.496-2.592c0.003-0.003 0.007-0.007 0.010-0.010l6.394-4.564 4.045-8.505c0.010-0.017 0.024-0.031 0.044-0.037s0.041-0.007 0.058 0.003c0.037 0.017 0.054 0.061 0.037 0.099-1.025 2.197-0.214 6.564 2.012 10.862 2.23 4.305 5.339 7.494 7.732 7.933 0.037 0.007 0.065 0.041 0.061 0.082-0.003 0.037-0.037 0.065-0.075 0.068l-0.065-0.003c-0.003 0-0.007 0-0.010 0l-9.282-1.591-7.463 2.67c-0.003 0-0.010 0.003-0.014 0.003l-3.524 0.562c-0.003 0.003-0.007 0.003-0.010 0.003zM1.757 23.611l1.835 0.198 3.507-0.562 7.477-2.674c0.014-0.003 0.024-0.007 0.037-0.003l8.355 1.431c-2.257-0.991-4.896-3.917-6.854-7.698-1.944-3.754-2.812-7.565-2.336-9.973l-3.602 7.562c-0.007 0.010-0.014 0.020-0.024 0.027l-6.404 4.575-2.486 2.578-0.981 1.737c0 0.003-0.003 0.007-0.003 0.007-0.177 0.276-0.058 0.957 0.286 1.621 0.337 0.651 0.824 1.141 1.158 1.165 0.014 0 0.024 0.003 0.034 0.010z"></path>
<path fill="#fff" style="fill: var(--color5, #fff)" d="M10.119 11.832l4.042-8.498h0.003c-1.004 2.153-0.272 6.516 2.012 10.93 2.291 4.421 5.444 7.545 7.787 7.974l-0.065-0.003-9.499-1.628c-1.079-0.191-2.52-1.594-3.551-3.597-1.059-2.054-1.246-4.101-0.776-5.075l0.048-0.102z"></path>
<path fill="#000" style="fill: var(--color4, #000)" d="M23.963 22.313c-0.003 0 0 0 0 0l-0.068-0.003c-0.003 0-0.007 0-0.010 0l-9.499-1.628c-1.141-0.201-2.588-1.662-3.606-3.634-1.154-2.241-1.212-4.237-0.776-5.143l0.051-0.102 4.041-8.495c0.010-0.017 0.024-0.031 0.044-0.037s0.041-0.007 0.058 0.003c0.037 0.017 0.054 0.061 0.037 0.099-1.025 2.197-0.214 6.564 2.012 10.862 2.23 4.305 5.339 7.494 7.732 7.933 0.037 0.007 0.065 0.041 0.061 0.082-0.010 0.034-0.041 0.065-0.078 0.065zM13.772 4.328l-3.585 7.538-0.051 0.102c-0.432 0.899-0.306 2.909 0.776 5.007 0.998 1.935 2.404 3.365 3.5 3.556l0.215 0.037 8.338 1.431c-2.257-0.991-4.896-3.917-6.854-7.698-1.944-3.754-2.812-7.565-2.339-9.973z"></path>
<path fill="#000" style="fill: var(--color4, #000)" d="M3.49 23.948c-0.003 0-0.007 0-0.007 0l-1.784-0.191c-0.010 0-0.020-0.003-0.031-0.010-0.388-0.061-0.878-0.552-1.236-1.24-0.378-0.729-0.49-1.437-0.283-1.771l0.003-0.010 0.981-1.737c0.020-0.037 0.065-0.048 0.102-0.027s0.048 0.065 0.027 0.102l-0.981 1.744c0 0.003-0.003 0.007-0.003 0.007-0.177 0.276-0.058 0.957 0.286 1.621 0.337 0.651 0.824 1.141 1.158 1.165 0.010 0 0.024 0.003 0.031 0.010l1.743 0.187c0.041 0.003 0.071 0.041 0.065 0.082-0.003 0.037-0.034 0.068-0.071 0.068z"></path>
<path fill="#fff" style="fill: var(--color5, #fff)" d="M3.609 23.873c-0.579-0.041-1.389-0.862-1.978-1.996-0.623-1.202-0.769-2.446-0.388-2.888l-1.018 1.771-0.007 0.014c-0.194 0.3-0.082 0.991 0.283 1.696 0.358 0.695 0.861 1.179 1.216 1.206l-0.010 0.007 1.903 0.191z"></path>
<path fill="#000" style="fill: var(--color4, #000)" d="M3.609 23.948c-0.003 0-0.003 0-0.007 0-0.014 0-0.031-0.003-0.044-0.003l-1.859-0.187c-0.010 0-0.020-0.003-0.031-0.010-0.388-0.061-0.878-0.552-1.236-1.24-0.378-0.729-0.49-1.437-0.283-1.771l0.003-0.010 0.895-1.56c0.034-0.089 0.078-0.167 0.133-0.232 0.024-0.031 0.068-0.034 0.099-0.014 0.031 0.024 0.041 0.065 0.020 0.099l-0.126 0.215c-0.201 0.542-0.003 1.604 0.514 2.599 0.562 1.087 1.328 1.88 1.876 1.952l0.041 0.003c0.041 0.003 0.071 0.041 0.068 0.082 0.003 0.048-0.027 0.078-0.065 0.078zM1.753 23.611l1.301 0.133c-0.501-0.32-1.052-0.981-1.491-1.833-0.426-0.821-0.637-1.672-0.603-2.285l-0.678 1.182c0 0.003-0.003 0.007-0.003 0.007-0.177 0.276-0.058 0.957 0.286 1.621 0.337 0.651 0.824 1.141 1.158 1.165 0.010 0 0.024 0.003 0.031 0.010z"></path>
<path fill="#000" style="fill: var(--color4, #000)" d="M6.987 23.338l0.15-0.031c-0.81 0.17-2.091-1.056-2.993-2.796-0.923-1.778-1.096-3.553-0.443-4.077l-0.085 0.085-2.366 2.459c-0.388 0.436-0.245 1.686 0.381 2.895 0.603 1.165 1.457 1.996 2.039 1.993l3.316-0.528z"></path>
<path fill="#000" style="fill: var(--color4, #000)" d="M3.667 23.944c-0.62 0-1.481-0.834-2.104-2.033-0.633-1.226-0.793-2.507-0.371-2.98l2.322-2.412c0.041-0.055 0.089-0.102 0.14-0.143 0.031-0.024 0.075-0.020 0.102 0.007 0.027 0.031 0.027 0.075 0 0.102l-0.133 0.14c-0.473 0.634-0.238 2.255 0.589 3.852 0.892 1.724 2.138 2.905 2.901 2.762l0.010-0.003c0.041-0.007 0.078 0.017 0.089 0.058 0.007 0.041-0.017 0.078-0.058 0.089-0.003 0-0.007 0-0.010 0.003l-0.14 0.027h-0.003l-3.316 0.528c-0.007 0-0.014 0.003-0.017 0.003zM3.316 16.941l-2.012 2.091c-0.375 0.422-0.204 1.655 0.395 2.81 0.586 1.131 1.413 1.948 1.968 1.952l2.928-0.467c-0.79-0.279-1.764-1.332-2.516-2.779-0.715-1.379-0.991-2.783-0.763-3.607z"></path>
<path fill="#000" style="fill: var(--color4, #000)" d="M17.902 10.476c-0.535 0.272-0.456 1.536 0.225 2.796 1.141 2.108 2.050 1.86 2.155 1.822 0.003 0 0.003 0.003 0 0.003l-1.958 1.577c-0.575-0.807-1.124-1.707-1.627-2.677-0.48-0.93-0.885-1.856-1.205-2.756l2.411-0.766z"></path>
<path fill="#000" style="fill: var(--color4, #000)" d="M18.325 16.751c-0.003 0-0.007 0-0.010 0-0.020-0.003-0.037-0.014-0.051-0.031-0.589-0.828-1.137-1.734-1.631-2.684-0.473-0.913-0.882-1.843-1.209-2.762-0.007-0.020-0.007-0.041 0.003-0.058s0.024-0.031 0.044-0.037l2.411-0.766c0.037-0.010 0.078 0.007 0.092 0.044s0 0.078-0.034 0.095c-0.116 0.058-0.201 0.174-0.252 0.344-0.167 0.535 0.037 1.482 0.511 2.35 1.113 2.057 1.971 1.822 2.063 1.788 0.034-0.014 0.075 0.003 0.092 0.034s0.010 0.075-0.017 0.099l-1.965 1.567c-0.014 0.010-0.031 0.017-0.048 0.017zM15.591 11.29c0.323 0.889 0.718 1.788 1.175 2.674 0.477 0.92 1.008 1.795 1.576 2.602l1.699-1.369c-0.388-0.017-1.12-0.307-1.978-1.89-0.497-0.916-0.701-1.884-0.521-2.466 0.024-0.075 0.051-0.14 0.085-0.201l-2.036 0.651z"></path>
</symbol>
<symbol id="icon-Play" viewBox="0 0 32 32">
<path fill="#000" style="fill: var(--color4, #000)" d="M22.591 25.261c5.176-3.594 6.477-10.681 2.905-15.83s-10.664-6.408-15.84-2.814c-5.176 3.594-6.477 10.681-2.905 15.83s10.664 6.408 15.84 2.814z"></path>
<path fill="#fff" style="fill: var(--color5, #fff)" d="M13.275 21.347l-1.662-9.012c-0.079-0.462 0.343-0.844 0.791-0.726l9.826 2.784c0.501 0.145 0.62 0.792 0.211 1.108l-8.177 6.228c-0.356 0.29-0.897 0.092-0.989-0.383z"></path>
</symbol>
<symbol id="icon-Share" viewBox="0 0 32 32">
<path fill="#b9ff66" style="fill: var(--color2, #b9ff66)" d="M23.757 23.864c4.368-4.37 4.368-11.455 0-15.825s-11.45-4.37-15.818 0c-4.368 4.37-4.368 11.455 0 15.825s11.45 4.37 15.818 0z"></path>
<path fill="#b9ff66" style="fill: var(--color2, #b9ff66)" d="M15.846 27.424c-6.317 0-11.473-5.144-11.473-11.477 0-6.32 5.142-11.477 11.473-11.477s11.472 5.144 11.472 11.477c0 6.32-5.142 11.477-11.472 11.477zM15.846 5.045c-6.004 0-10.898 4.883-10.898 10.903 0 6.006 4.881 10.903 10.898 10.903 6.004 0 10.898-4.883 10.898-10.903 0-6.006-4.881-10.903-10.898-10.903z"></path>
<path fill="#000" style="fill: var(--color4, #000)" d="M18.874 17.057c-0.626 0-1.175 0.3-1.54 0.77l-3.772-1.475c0-0.052 0.013-0.091 0.013-0.144 0-0.091-0.013-0.183-0.026-0.274l3.863-1.789c0.352 0.405 0.874 0.666 1.462 0.679 1.070 0 1.958-0.875 1.958-1.959s-0.874-1.972-1.958-1.972c-1.070 0-1.958 0.875-1.958 1.959 0 0.091 0.013 0.183 0.026 0.274l-3.863 1.789c-0.352-0.405-0.874-0.666-1.462-0.679-1.070 0-1.958 0.875-1.958 1.959s0.874 1.972 1.958 1.972c0.627 0 1.175-0.3 1.54-0.77l3.772 1.475c0 0.052-0.013 0.091-0.013 0.144 0 1.084 0.874 1.972 1.958 1.972 1.070 0 1.958-0.875 1.958-1.959-0.013-1.084-0.888-1.959-1.958-1.972z"></path>
</symbol>
<symbol id="icon-Star" viewBox="0 0 32 32">
<path d="M21.595 10.403l10.072 5.488-10.072 5.532-5.51 10.050-5.51-10.050-10.072-5.532 10.072-5.488 5.51-10.094 5.51 10.094z"></path>
</symbol>
<symbol id="icon-team-bg" viewBox="0 0 32 32">
<path d="M27.635 15.971c10.724 12.215 0.821 22.118-11.394 11.394-12.215 10.724-22.118 0.821-11.394-11.394-10.724-12.215-0.821-22.118 11.394-11.394 12.215-10.724 22.118-0.821 11.394 11.394z"></path>
</symbol>
<symbol id="icon-twitter" viewBox="0 0 36 32">
<path d="M31.992 8.983c1.379-1.034 2.619-2.275 3.585-3.722-1.241 0.551-2.688 0.965-4.136 1.103 1.516-0.896 2.619-2.275 3.171-3.998-1.379 0.827-2.964 1.448-4.55 1.792-1.379-1.448-3.24-2.275-5.308-2.275-3.998 0-7.238 3.24-7.238 7.238 0 0.551 0.069 1.103 0.207 1.654-5.997-0.345-11.374-3.24-14.959-7.583-0.62 1.034-0.965 2.275-0.965 3.653 0 2.482 1.241 4.688 3.24 5.997-1.172-0.069-2.344-0.345-3.309-0.896v0.069c0 3.516 2.482 6.411 5.79 7.1-0.551 0.138-1.241 0.276-1.861 0.276-0.483 0-0.896-0.069-1.379-0.138 0.896 2.895 3.585 4.963 6.755 5.032-2.482 1.93-5.584 3.102-8.961 3.102-0.62 0-1.172-0.069-1.723-0.138 3.171 2.068 6.962 3.24 11.098 3.24 13.304 0 20.542-10.961 20.542-20.542 0-0.345 0-0.62 0-0.965z"></path>
</symbol>
</defs>
</svg>
