<svg xmlns="http://www.w3.org/2000/svg" aria-hidden="true" style="position:absolute;width:0;height:0;overflow:hidden"><defs><symbol id="icon-arrow" viewBox="0 0 34 32"><path d="M2 21.922a2.4 2.4 0 1 0 2.4 4.156L2 21.921zM33.231 8.621a2.4 2.4 0 0 0-1.697-2.939L10.67.092a2.4 2.4 0 0 0-1.242 4.636l18.546 4.969-4.969 18.546a2.4 2.4 0 0 0 4.636 1.242l5.591-20.864zM4.4 26.078l27.713-16-2.4-4.157L2 21.921l2.4 4.157z"/></symbol><symbol id="icon-Bubble" viewBox="0 0 73 32"><path d="M5.414 0A5.414 5.414 0 0 0 0 5.414v17.799a5.416 5.416 0 0 0 5.416 5.414H6.78l3.205 3.374 3.205-3.374h54.297a5.416 5.416 0 0 0 5.416-5.414V5.414A5.414 5.414 0 0 0 67.489 0H5.414z"/><path d="m6.78 28.626.087-.083-.036-.038h-.052v.12zM9.985 32l-.087.083.087.092.087-.092L9.985 32zm3.205-3.374v-.12h-.052l-.036.038.087.083zM.12 5.414A5.293 5.293 0 0 1 5.413.121V-.12A5.534 5.534 0 0 0-.121 5.414H.12zm0 17.798V5.413h-.241v17.799H.12zm5.296 5.294A5.296 5.296 0 0 1 .12 23.213h-.241a5.536 5.536 0 0 0 5.536 5.534v-.241zm1.364 0H5.416v.241H6.78v-.241zm3.292 3.411-3.205-3.374-.174.166 3.205 3.374.174-.166zm3.03-3.374-3.205 3.374.174.166 3.205-3.374-.174-.166zm54.384-.037H13.189v.241h54.297v-.241zm5.296-5.294a5.295 5.295 0 0 1-5.296 5.293v.241a5.536 5.536 0 0 0 5.536-5.534h-.241zm0-17.798v17.799h.241V5.414h-.241zM67.489.12a5.293 5.293 0 0 1 5.293 5.293h.241a5.534 5.534 0 0 0-5.534-5.534V.12zM5.414.12h62.075v-.241H5.414V.12z"/></symbol><symbol id="icon-cta" viewBox="0 0 29 32"><path d="m22.441 14.339 1.441 3.65 3.753-1.149-1.955 3.403 3.238 2.217-3.88.593.285 3.914-2.882-2.664-2.882 2.664.285-3.914-3.88-.593 3.238-2.217-1.955-3.403L21 17.989l1.441-3.65zM9.089 24.798l1.858-3.411 1.873 3.411 3.403 1.866-3.403 1.866-1.873 3.411-1.858-3.411-3.418-1.866 3.418-1.866z"/><path d="M17.377 15.109a5.023 5.023 0 1 1-10.046 0 5.023 5.023 0 0 1 10.046 0z"/><path d="M11.504 14.015c0 .895-.363 1.62-.81 1.62s-.81-.725-.81-1.62c0-.895.363-1.62.81-1.62s.81.725.81 1.62zM14.825 14.015c0 .895-.363 1.62-.81 1.62s-.81-.725-.81-1.62c0-.895.363-1.62.81-1.62s.81.725.81 1.62z"/></symbol><symbol id="icon-Ellipse" viewBox="0 0 33 32"><path d="M32.366 16c0 8.837-7.163 16-16 16s-16-7.163-16-16 7.163-16 16-16 16 7.163 16 16z"/></symbol><symbol id="icon-facebook" viewBox="0 0 32 32"><path d="M32 16.097C32 7.204 24.839 0 16 0S0 7.205 0 16.097C0 24.146 5.806 30.831 13.484 32V20.771H9.419v-4.673h4.064v-3.505c0-4.024 2.387-6.296 6-6.296 1.806 0 3.613.325 3.613.325v3.959h-2c-2 0-2.645 1.233-2.645 2.531v2.986h4.452l-.71 4.673h-3.742V32c7.677-1.168 13.548-7.854 13.548-15.903z"/></symbol><symbol id="icon-Heart" viewBox="0 0 32 32"><path d="M21.567 26.375c5.786-3.04 8.024-10.176 4.998-15.939S16.397 2.464 10.611 5.504C4.825 8.544 2.587 15.68 5.613 21.443s10.168 7.972 15.954 4.932z"/><path d="M10.7 13.329A3.269 3.269 0 0 1 13.016 12a3.07 3.07 0 0 1 1.987.456c.316.19.595.43.861.722.19-.342.418-.646.683-.899a3.052 3.052 0 0 1 1.835-.874 3.3 3.3 0 0 1 2.557.798c.696.608 1.139 1.494 1.253 2.494.114 1.026-.165 2.013-.873 3.102-.633.975-1.595 1.988-2.708 3.178-.38.405-.81.861-1.253 1.342a.688.688 0 0 1-.456.228.695.695 0 0 1-.494-.127 85.943 85.943 0 0 0-1.519-1.038c-1.342-.912-2.506-1.697-3.341-2.507-.937-.899-1.418-1.811-1.531-2.836-.101-1 .139-1.963.683-2.71z"/></symbol><symbol id="icon-linkedin" viewBox="0 0 32 32"><path d="M.598 32h6.579V10.7H.598V32zM0 3.9C0 6 1.695 7.7 3.888 7.7c2.093 0 3.788-1.7 3.788-3.8S5.981 0 3.888 0C1.695 0 0 1.8 0 3.9zM25.321 32H32V20.3c0-5.7-1.296-10.2-7.975-10.2-3.19 0-5.383 1.8-6.28 3.5h-.1v-2.9h-6.28V32h6.579V21.5c0-2.8.498-5.5 3.988-5.5 3.389 0 3.389 3.2 3.389 5.6V32z"/></symbol><symbol id="icon-Location" viewBox="0 0 32 32"><path d="M21.293 26.588c5.896-2.871 8.362-9.951 5.51-15.812s-9.944-8.286-15.84-5.415c-5.896 2.871-8.362 9.951-5.51 15.812s9.944 8.286 15.84 5.415z"/><path d="M16.068 28.069c-1.265 0-2.555-.195-3.808-.621-3.066-1.022-5.547-3.164-6.983-6.061a11.974 11.974 0 0 1-.62-9.225c2.141-6.316 9.026-9.76 15.364-7.655 3.066 1.022 5.547 3.164 6.983 6.06a11.974 11.974 0 0 1 .62 9.225c-1.727 5.063-6.484 8.275-11.556 8.275zm.121-23.633c-4.854 0-9.403 3.067-11.046 7.91-.985 2.933-.779 6.06.596 8.811a11.435 11.435 0 0 0 6.678 5.793c6.058 2.008 12.639-1.278 14.683-7.314.985-2.933.779-6.06-.596-8.811a11.435 11.435 0 0 0-6.678-5.793 11.157 11.157 0 0 0-3.637-.596z"/><path d="M22.175 14.062c-.122 2.957-5.121 9.87-6.314 11.488a.291.291 0 0 1-.487-.024c-.754-1.217-3.248-5.306-4.55-8.616-.523-1.314-.851-2.507-.815-3.347a6.09 6.09 0 0 1 6.326-5.841c3.357.158 5.973 2.982 5.839 6.34z"/><path d="M18.06 15.791a2.787 2.787 0 1 0-3.942-3.941 2.787 2.787 0 0 0 3.942 3.941z"/></symbol><symbol id="icon-Logo" viewBox="0 0 196 32"><path d="M15.999 4.92 31.644.311l-4.565 15.69 4.565 15.645-15.645-4.565-15.69 4.565 4.609-15.645L.309.311l15.69 4.609zM43.484 27.556V2.667h9.884c1.517 0 2.868.308 4.053.924 1.209.593 2.145 1.446 2.809 2.56.687 1.09 1.031 2.406 1.031 3.947v.462c0 1.541-.356 2.868-1.067 3.982-.687 1.114-1.624 1.967-2.809 2.56s-2.524.889-4.018.889h-6.044v9.564h-3.84zm3.84-13.049h5.653c1.351 0 2.43-.356 3.236-1.067s1.209-1.683 1.209-2.916v-.356c0-1.256-.403-2.24-1.209-2.951S54.329 6.15 52.977 6.15h-5.653v8.356zM72.742 28.053c-1.754 0-3.319-.356-4.693-1.067-1.351-.735-2.418-1.778-3.2-3.129s-1.173-2.951-1.173-4.8v-.533c0-1.849.391-3.437 1.173-4.764a8.122 8.122 0 0 1 3.2-3.129c1.375-.735 2.939-1.102 4.693-1.102s3.319.367 4.693 1.102a8.066 8.066 0 0 1 3.236 3.129c.782 1.327 1.173 2.916 1.173 4.764v.533c0 1.849-.391 3.449-1.173 4.8s-1.861 2.394-3.236 3.129c-1.375.711-2.939 1.067-4.693 1.067zm0-3.271c1.612 0 2.916-.51 3.911-1.529 1.019-1.043 1.529-2.477 1.529-4.302v-.32c0-1.825-.498-3.247-1.493-4.267-.996-1.043-2.311-1.564-3.947-1.564-1.588 0-2.892.521-3.911 1.564-.996 1.019-1.493 2.442-1.493 4.267v.32c0 1.825.498 3.259 1.493 4.302 1.019 1.019 2.323 1.529 3.911 1.529zM93.586 28.053c-2.228 0-4.077-.498-5.547-1.493s-2.37-2.501-2.702-4.516l3.413-.818c.189.972.509 1.742.96 2.311s1.007.972 1.671 1.209a6.714 6.714 0 0 0 2.204.356c1.162 0 2.051-.225 2.667-.676.64-.45.96-1.031.96-1.742s-.296-1.233-.889-1.564c-.593-.332-1.469-.604-2.631-.818l-1.209-.213c-1.185-.213-2.264-.521-3.236-.924s-1.742-.96-2.311-1.671-.853-1.624-.853-2.738c0-1.659.616-2.939 1.849-3.84 1.233-.924 2.868-1.387 4.907-1.387 1.967 0 3.58.45 4.836 1.351 1.28.877 2.109 2.074 2.489 3.591l-3.413.96c-.213-1.067-.664-1.813-1.351-2.24-.687-.45-1.54-.676-2.56-.676-.996 0-1.778.19-2.347.569-.569.356-.853.865-.853 1.529 0 .711.273 1.233.818 1.564.569.332 1.327.581 2.276.747l1.244.213c1.256.213 2.406.51 3.449.889s1.86.924 2.453 1.636c.616.711.924 1.659.924 2.844 0 1.754-.652 3.117-1.956 4.089s-3.058 1.458-5.262 1.458zM105.084 27.556V10.027h3.662v17.529h-3.662zm1.849-19.912c-.711 0-1.316-.225-1.813-.676-.475-.474-.711-1.079-.711-1.813s.236-1.327.711-1.778c.498-.474 1.102-.711 1.813-.711.734 0 1.339.237 1.813.711.474.45.711 1.043.711 1.778s-.237 1.339-.711 1.813c-.475.45-1.079.676-1.813.676zM120.759 27.556c-1.067 0-1.92-.32-2.56-.96-.616-.64-.924-1.493-.924-2.56V13.12h-4.836v-3.093h4.836V4.231h3.662v5.796h5.227v3.093h-5.227v10.276c0 .711.332 1.067.996 1.067h3.662v3.093h-4.836zM130.466 27.556V10.027h3.662v17.529h-3.662zm1.849-19.912c-.711 0-1.316-.225-1.813-.676-.474-.474-.711-1.079-.711-1.813s.237-1.327.711-1.778c.498-.474 1.102-.711 1.813-.711.735 0 1.34.237 1.813.711.475.45.711 1.043.711 1.778s-.236 1.339-.711 1.813c-.474.45-1.078.676-1.813.676zM143.617 27.556l-5.902-17.529h3.876l4.658 14.827h.569l4.658-14.827h3.876l-5.902 17.529h-5.831zM165.623 27.876c-1.327 0-2.512-.296-3.556-.889s-1.86-1.434-2.453-2.524c-.592-1.09-.889-2.394-.889-3.911V10.028h3.662v10.276c0 1.517.38 2.643 1.138 3.378.759.711 1.813 1.067 3.164 1.067 1.493 0 2.691-.498 3.591-1.493.924-1.019 1.387-2.477 1.387-4.373V10.03h3.662v17.529h-3.591v-2.631h-.569c-.332.711-.924 1.387-1.778 2.027-.853.616-2.109.924-3.769.924zM187.926 28.053c-2.228 0-4.077-.498-5.547-1.493s-2.371-2.501-2.702-4.516l3.413-.818c.189.972.509 1.742.96 2.311s1.007.972 1.671 1.209a6.714 6.714 0 0 0 2.204.356c1.161 0 2.05-.225 2.667-.676.64-.45.96-1.031.96-1.742s-.297-1.233-.889-1.564c-.593-.332-1.47-.604-2.631-.818l-1.209-.213c-1.186-.213-2.264-.521-3.236-.924s-1.742-.96-2.311-1.671-.853-1.624-.853-2.738c0-1.659.616-2.939 1.849-3.84 1.232-.924 2.868-1.387 4.907-1.387 1.967 0 3.579.45 4.836 1.351 1.28.877 2.109 2.074 2.489 3.591l-3.413.96c-.213-1.067-.664-1.813-1.351-2.24-.688-.45-1.541-.676-2.56-.676-.996 0-1.778.19-2.347.569-.569.356-.853.865-.853 1.529 0 .711.272 1.233.818 1.564.569.332 1.327.581 2.276.747l1.244.213c1.256.213 2.405.51 3.449.889s1.86.924 2.453 1.636c.616.711.924 1.659.924 2.844 0 1.754-.652 3.117-1.956 4.089s-3.058 1.458-5.262 1.458z"/></symbol><symbol id="icon-Loudspeaker" viewBox="0 0 30 32"><path d="M13.262 31.877c-.548.187-1.175-.184-1.393-.828l-3.391-9.936 1.982-.678 3.395 9.949c.218.637-.048 1.305-.592 1.492z"/><path d="M12.965 32c-.16 0-.323-.037-.48-.116a1.4 1.4 0 0 1-.691-.811l-3.391-9.936a.074.074 0 0 1 .048-.095l1.982-.678c.02-.007.041-.007.058.003s.031.024.037.044l3.395 9.949c.228.674-.058 1.386-.64 1.587a.984.984 0 0 1-.317.051zM8.573 21.162l3.367 9.864c.109.324.334.589.613.725a.897.897 0 0 0 .684.055c.504-.174.749-.8.545-1.397l-3.371-9.878-1.839.63z"/><path d="m10.109 11.859-6.411 4.574-2.496 2.592-.981 1.734-.003.014c-.194.3-.082.991.283 1.696.357.695.861 1.179 1.216 1.206l-.01.007 1.883.204 3.524-.562 7.48-2.677 9.363 1.597c-2.336-.436-5.489-3.559-7.78-7.977-2.288-4.414-3.017-8.778-2.012-10.93h-.003l-4.052 8.522z"/><path d="M25.501 22.052c2.298-1.194 1.854-6.606-.993-12.089s-7.016-8.96-9.314-7.766c-2.298 1.194-1.854 6.606.993 12.089s7.016 8.96 9.314 7.766z"/><path d="M24.491 22.364c-1.001 0-2.206-.559-3.504-1.645-1.767-1.478-3.5-3.757-4.879-6.421-2.087-4.033-2.949-8.168-2.193-10.535.252-.79.674-1.342 1.25-1.638 1.144-.586 2.754-.089 4.539 1.403 1.767 1.478 3.5 3.757 4.879 6.421 2.091 4.033 2.952 8.168 2.193 10.535-.252.79-.674 1.342-1.25 1.638-.31.163-.657.242-1.035.242zM16.207 2.036c-.351 0-.678.072-.97.225-.541.276-.936.8-1.175 1.553-.746 2.333.112 6.424 2.182 10.423 2.819 5.44 6.953 8.921 9.217 7.759.541-.276.936-.8 1.175-1.553.746-2.333-.112-6.424-2.183-10.423-2.455-4.735-5.901-7.984-8.246-7.984z"/><path d="M24.491 22.364c-1.001 0-2.206-.559-3.504-1.645-1.767-1.478-3.5-3.757-4.879-6.421-2.087-4.033-2.949-8.168-2.193-10.535.252-.79.674-1.342 1.25-1.638.766-.395 1.767-.296 2.894.283 1.079.555 2.247 1.54 3.384 2.844.027.031.024.078-.007.106s-.078.024-.106-.007c-2.308-2.65-4.644-3.835-6.095-3.089-.541.276-.936.8-1.175 1.553-.746 2.333.112 6.424 2.182 10.423 2.451 4.731 5.901 7.984 8.243 7.984.351 0 .678-.072.97-.225.541-.276.936-.8 1.175-1.553.746-2.333-.112-6.424-2.183-10.423A25.32 25.32 0 0 0 22.39 6.69c-.024-.034-.017-.082.017-.106s.082-.017.106.017a25.748 25.748 0 0 1 2.07 3.352c2.087 4.029 2.949 8.165 2.189 10.532-.252.79-.674 1.342-1.25 1.638-.31.163-.657.242-1.035.242z"/><path d="M20.287 15.073c.532-.277.43-1.529-.229-2.798s-1.624-2.073-2.157-1.797c-.532.277-.43 1.529.229 2.798s1.624 2.073 2.157 1.797z"/><path d="M20.054 15.204c-.586 0-1.403-.756-1.992-1.897-.49-.947-.691-1.921-.511-2.483.065-.198.17-.337.317-.412.579-.296 1.57.511 2.257 1.836.49.947.691 1.921.511 2.483-.065.198-.17.337-.317.412a.584.584 0 0 1-.266.061zm-1.92-4.707a.426.426 0 0 0-.197.044c-.112.058-.194.167-.245.327-.167.525.027 1.458.501 2.371.627 1.209 1.57 2.023 2.057 1.771.112-.058.194-.167.245-.327.167-.528-.031-1.458-.501-2.371-.552-1.059-1.341-1.815-1.859-1.815z"/><path d="M23.973 21.093c-.878 0-1.934-.49-3.071-1.441-1.546-1.294-3.064-3.29-4.27-5.62-1.828-3.529-2.581-7.15-1.92-9.224.221-.695.592-1.179 1.1-1.441 1.164-.596 2.877.092 4.702 1.887.031.031.031.075 0 .106s-.075.031-.106 0c-1.777-1.747-3.429-2.429-4.528-1.86-.47.242-.814.695-1.025 1.352-.65 2.037.099 5.613 1.91 9.111 2.142 4.139 5.155 6.979 7.205 6.979.306 0 .589-.065.848-.194.47-.242.814-.695 1.025-1.352.65-2.037-.099-5.613-1.91-9.111a22.178 22.178 0 0 0-1.822-2.943c-.024-.034-.017-.082.017-.106s.082-.017.105.017a22.428 22.428 0 0 1 1.835 2.963c1.828 3.529 2.581 7.15 1.92 9.224-.221.695-.592 1.179-1.1 1.441-.279.14-.586.211-.916.211z"/><path d="M3.592 23.958h-.007l-1.883-.204a.057.057 0 0 1-.031-.01c-.388-.061-.878-.552-1.236-1.24-.381-.725-.494-1.434-.286-1.768l.003-.01.981-1.737c.003-.007.007-.01.01-.014l2.496-2.592.01-.01 6.394-4.564 4.045-8.505c.01-.017.024-.031.044-.037s.041-.007.058.003a.075.075 0 0 1 .037.099c-1.025 2.197-.214 6.564 2.012 10.862 2.23 4.305 5.339 7.494 7.732 7.933a.075.075 0 0 1 .061.082c-.003.037-.037.065-.075.068l-.065-.003h-.01L14.6 20.72l-7.463 2.67-.014.003-3.524.562c-.003.003-.007.003-.01.003zm-1.835-.347 1.835.198 3.507-.562 7.477-2.674c.014-.003.024-.007.037-.003l8.355 1.431c-2.257-.991-4.896-3.917-6.854-7.698-1.944-3.754-2.812-7.565-2.336-9.973l-3.602 7.562c-.007.01-.014.02-.024.027l-6.404 4.575-2.486 2.578-.981 1.737c0 .003-.003.007-.003.007-.177.276-.058.957.286 1.621.337.651.824 1.141 1.158 1.165.014 0 .024.003.034.01z"/><path d="m10.119 11.832 4.042-8.498h.003c-1.004 2.153-.272 6.516 2.012 10.93 2.291 4.421 5.444 7.545 7.787 7.974l-.065-.003-9.499-1.628c-1.079-.191-2.52-1.594-3.551-3.597-1.059-2.054-1.246-4.101-.776-5.075l.048-.102z"/><path d="M23.963 22.313c-.003 0 0 0 0 0l-.068-.003h-.01l-9.499-1.628c-1.141-.201-2.588-1.662-3.606-3.634-1.154-2.241-1.212-4.237-.776-5.143l.051-.102 4.041-8.495c.01-.017.024-.031.044-.037s.041-.007.058.003a.075.075 0 0 1 .037.099c-1.025 2.197-.214 6.564 2.012 10.862 2.23 4.305 5.339 7.494 7.732 7.933a.075.075 0 0 1 .061.082c-.01.034-.041.065-.078.065zM13.772 4.328l-3.585 7.538-.051.102c-.432.899-.306 2.909.776 5.007.998 1.935 2.404 3.365 3.5 3.556l.215.037 8.338 1.431c-2.257-.991-4.896-3.917-6.854-7.698-1.944-3.754-2.812-7.565-2.339-9.973zM3.49 23.948h-.007l-1.784-.191a.057.057 0 0 1-.031-.01c-.388-.061-.878-.552-1.236-1.24-.378-.729-.49-1.437-.283-1.771l.003-.01.981-1.737c.02-.037.065-.048.102-.027s.048.065.027.102l-.981 1.744c0 .003-.003.007-.003.007-.177.276-.058.957.286 1.621.337.651.824 1.141 1.158 1.165.01 0 .024.003.031.01l1.743.187a.072.072 0 0 1 .065.082.074.074 0 0 1-.071.068z"/><path d="M3.609 23.873c-.579-.041-1.389-.862-1.978-1.996-.623-1.202-.769-2.446-.388-2.888L.225 20.76l-.007.014c-.194.3-.082.991.283 1.696.358.695.861 1.179 1.216 1.206l-.01.007 1.903.191z"/><path d="M3.609 23.948h-.007l-.044-.003-1.859-.187a.057.057 0 0 1-.031-.01c-.388-.061-.878-.552-1.236-1.24-.378-.729-.49-1.437-.283-1.771l.003-.01.895-1.56a.796.796 0 0 1 .133-.232c.024-.031.068-.034.099-.014a.074.074 0 0 1 .02.099l-.126.215c-.201.542-.003 1.604.514 2.599.562 1.087 1.328 1.88 1.876 1.952l.041.003a.076.076 0 0 1 .068.082c.003.048-.027.078-.065.078zm-1.856-.337 1.301.133c-.501-.32-1.052-.981-1.491-1.833-.426-.821-.637-1.672-.603-2.285l-.678 1.182c0 .003-.003.007-.003.007-.177.276-.058.957.286 1.621.337.651.824 1.141 1.158 1.165.01 0 .024.003.031.01z"/><path d="m6.987 23.338.15-.031c-.81.17-2.091-1.056-2.993-2.796-.923-1.778-1.096-3.553-.443-4.077l-.085.085-2.366 2.459c-.388.436-.245 1.686.381 2.895.603 1.165 1.457 1.996 2.039 1.993l3.316-.528z"/><path d="M3.667 23.944c-.62 0-1.481-.834-2.104-2.033-.633-1.226-.793-2.507-.371-2.98l2.322-2.412a.791.791 0 0 1 .14-.143.078.078 0 0 1 .102.007c.027.031.027.075 0 .102l-.133.14c-.473.634-.238 2.255.589 3.852.892 1.724 2.138 2.905 2.901 2.762l.01-.003a.077.077 0 0 1 .089.058.077.077 0 0 1-.058.089c-.003 0-.007 0-.01.003l-.14.027h-.003l-3.316.528c-.007 0-.014.003-.017.003zm-.351-7.003-2.012 2.091c-.375.422-.204 1.655.395 2.81.586 1.131 1.413 1.948 1.968 1.952l2.928-.467c-.79-.279-1.764-1.332-2.516-2.779-.715-1.379-.991-2.783-.763-3.607zM17.902 10.476c-.535.272-.456 1.536.225 2.796 1.141 2.108 2.05 1.86 2.155 1.822.003 0 .003.003 0 .003l-1.958 1.577a22.391 22.391 0 0 1-1.627-2.677c-.48-.93-.885-1.856-1.205-2.756l2.411-.766z"/><path d="M18.325 16.751h-.01a.082.082 0 0 1-.051-.031 22.771 22.771 0 0 1-1.631-2.684 22.277 22.277 0 0 1-1.209-2.762c-.007-.02-.007-.041.003-.058s.024-.031.044-.037l2.411-.766c.037-.01.078.007.092.044s0 .078-.034.095c-.116.058-.201.174-.252.344-.167.535.037 1.482.511 2.35 1.113 2.057 1.971 1.822 2.063 1.788.034-.014.075.003.092.034s.01.075-.017.099l-1.965 1.567a.085.085 0 0 1-.048.017zm-2.734-5.461a22.973 22.973 0 0 0 2.751 5.276l1.699-1.369c-.388-.017-1.12-.307-1.978-1.89-.497-.916-.701-1.884-.521-2.466.024-.075.051-.14.085-.201l-2.036.651z"/></symbol><symbol id="icon-Orbita" viewBox="0 0 54 32"><path d="M18.325 16.751h-.01a.082.082 0 0 1-.051-.031 22.771 22.771 0 0 1-1.631-2.684 22.277 22.277 0 0 1-1.209-2.762c-.007-.02-.007-.041.003-.058s.024-.031.044-.037l2.411-.766c.037-.01.078.007.092.044s0 .078-.034.095c-.116.058-.201.174-.252.344-.167.535.037 1.482.511 2.35 1.113 2.057 1.971 1.822 2.063 1.788.034-.014.075.003.092.034s.01.075-.017.099l-1.965 1.567a.085.085 0 0 1-.048.017zm-2.734-5.461a22.973 22.973 0 0 0 2.751 5.276l1.699-1.369c-.388-.017-1.12-.307-1.978-1.89-.497-.916-.701-1.884-.521-2.466.024-.075.051-.14.085-.201l-2.036.651z"/></symbol><symbol id="icon-Play" viewBox="0 0 32 32"><path d="M22.591 25.261c5.176-3.594 6.477-10.681 2.905-15.83S14.832 3.023 9.656 6.617c-5.176 3.594-6.477 10.681-2.905 15.83s10.664 6.408 15.84 2.814z"/><path d="m13.275 21.347-1.662-9.012a.637.637 0 0 1 .791-.726l9.826 2.784c.501.145.62.792.211 1.108l-8.177 6.228c-.356.29-.897.092-.989-.383z"/></symbol><symbol id="icon-Share" viewBox="0 0 32 32"><path d="M23.757 23.864c4.368-4.37 4.368-11.455 0-15.825s-11.45-4.37-15.818 0-4.368 11.455 0 15.825 11.45 4.37 15.818 0z"/><path d="M15.846 27.424c-6.317 0-11.473-5.144-11.473-11.477 0-6.32 5.142-11.477 11.473-11.477s11.472 5.144 11.472 11.477c0 6.32-5.142 11.477-11.472 11.477zm0-22.379c-6.004 0-10.898 4.883-10.898 10.903 0 6.006 4.881 10.903 10.898 10.903 6.004 0 10.898-4.883 10.898-10.903 0-6.006-4.881-10.903-10.898-10.903z"/><path d="M18.874 17.057c-.626 0-1.175.3-1.54.77l-3.772-1.475c0-.052.013-.091.013-.144 0-.091-.013-.183-.026-.274l3.863-1.789c.352.405.874.666 1.462.679a1.967 1.967 0 0 0 0-3.931c-1.07 0-1.958.875-1.958 1.959 0 .091.013.183.026.274l-3.863 1.789a1.988 1.988 0 0 0-1.462-.679 1.967 1.967 0 0 0 0 3.931c.627 0 1.175-.3 1.54-.77l3.772 1.475c0 .052-.013.091-.013.144 0 1.084.874 1.972 1.958 1.972 1.07 0 1.958-.875 1.958-1.959a1.993 1.993 0 0 0-1.958-1.972z"/></symbol><symbol id="icon-Star" viewBox="0 0 32 32"><path d="m21.595 10.403 10.072 5.488-10.072 5.532-5.51 10.05-5.51-10.05L.503 15.891l10.072-5.488L16.085.309l5.51 10.094z"/></symbol><symbol id="icon-sun" viewBox="0 0 32 32"><path d="M-38.544-1.855h52.405c1.225 0 2.219.993 2.219 2.219v30.218a2.219 2.219 0 0 1-2.219 2.219h-52.405a2.219 2.219 0 0 1-2.219-2.219V.364c0-1.225.993-2.219 2.219-2.219z"/></symbol><symbol id="icon-team-bg" viewBox="0 0 32 32"><path d="M27.635 15.971c10.724 12.215.821 22.118-11.394 11.394-12.215 10.724-22.118.821-11.394-11.394C-5.877 3.756 4.026-6.147 16.241 4.577c12.215-10.724 22.118-.821 11.394 11.394z"/></symbol><symbol id="icon-twitter" viewBox="0 0 36 32"><path d="M31.992 8.983c1.379-1.034 2.619-2.275 3.585-3.722a13.582 13.582 0 0 1-4.136 1.103c1.516-.896 2.619-2.275 3.171-3.998a15.274 15.274 0 0 1-4.55 1.792 7.238 7.238 0 0 0-5.308-2.275 7.237 7.237 0 0 0-7.238 7.238c0 .551.069 1.103.207 1.654A21.003 21.003 0 0 1 2.764 3.192c-.62 1.034-.965 2.275-.965 3.653a7.12 7.12 0 0 0 3.24 5.997c-1.172-.069-2.344-.345-3.309-.896v.069c0 3.516 2.482 6.411 5.79 7.1-.551.138-1.241.276-1.861.276-.483 0-.896-.069-1.379-.138.896 2.895 3.585 4.963 6.755 5.032-2.482 1.93-5.584 3.102-8.961 3.102-.62 0-1.172-.069-1.723-.138 3.171 2.068 6.962 3.24 11.098 3.24 13.304 0 20.542-10.961 20.542-20.542v-.965z"/></symbol></defs></svg>